<svg xmlns="http://www.w3.org/2000/svg" width="41" height="23" viewBox="0 0 41 23">
  <g id="Group_12" data-name="Group 12" transform="translate(-323 -36)">
    <rect id="Rectangle_10" data-name="Rectangle 10" width="41" height="2" rx="1" transform="translate(323 36)" fill="#0276be"/>
    <path id="Path_1" data-name="Path 1" d="M1.216,0H32.829a1.124,1.124,0,0,1,1.216,1,1.124,1.124,0,0,1-1.216,1H1.216A1.124,1.124,0,0,1,0,1,1.124,1.124,0,0,1,1.216,0Z" transform="translate(323 47)" fill="#0276be"/>
    <path id="Path_2" data-name="Path 2" d="M1.216,0H26.749a1.124,1.124,0,0,1,1.216,1,1.124,1.124,0,0,1-1.216,1H1.216A1.124,1.124,0,0,1,0,1,1.124,1.124,0,0,1,1.216,0Z" transform="translate(323 57)" fill="#0276be"/>
  </g>
</svg>
